STARTFONT 2.3
FONT -FontForge-Hanalei-Book-R-Normal--12-120-72-72-P-60-ISO10646-1
SIZE 12 72 72  2
FONTBOUNDINGBOX 16 16 -1 -3
COMMENT "Generated by fontforge, http://fontforge.sourceforge.net"
COMMENT "Copyright (c) 2012 by Brian J. Bonislawsky DBA Astigmatic (AOETI) (astigma@astigmatic.com), with ReservedFont Name "Hanalei""
STARTPROPERTIES 40
FOUNDRY "FontForge"
FAMILY_NAME "Hanalei"
WEIGHT_NAME "Book"
SLANT "R"
SETWIDTH_NAME "Normal"
ADD_STYLE_NAME ""
PIXEL_SIZE 12
POINT_SIZE 120
RESOLUTION_X 72
RESOLUTION_Y 72
SPACING "P"
AVERAGE_WIDTH 60
CHARSET_REGISTRY "ISO10646"
CHARSET_ENCODING "1"
FONTNAME_REGISTRY ""
CHARSET_COLLECTIONS "ISO8859-2 ISO8859-9 ISO8859-4 ISO10646-1"
BITS_PER_PIXEL 2
FONT_NAME "Hanalei-Regular"
FACE_NAME "Hanalei"
COPYRIGHT "Copyright (c) 2012 by Brian J. Bonislawsky DBA Astigmatic (AOETI) (astigma@astigmatic.com), with ReservedFont Name "Hanalei""
FONT_VERSION "1.000"
FONT_ASCENT 10
FONT_DESCENT 2
UNDERLINE_POSITION -2
UNDERLINE_THICKNESS 1
X_HEIGHT 7
CAP_HEIGHT 7
RAW_ASCENT 799
RAW_DESCENT 200
NORM_SPACE 2
RELATIVE_WEIGHT 40
RELATIVE_SETWIDTH 50
SUPERSCRIPT_X 0
SUPERSCRIPT_Y 5
SUPERSCRIPT_SIZE 7
SUBSCRIPT_X 0
SUBSCRIPT_Y 1
SUBSCRIPT_SIZE 7
AVG_LOWERCASE_WIDTH 64
AVG_UPPERCASE_WIDTH 63
ENDPROPERTIES
CHARS 366
STARTCHAR space
ENCODING 32
SWIDTH 200 0
DWIDTH 2 0
BBX 1 1 0 0
BITMAP
00
ENDCHAR
STARTCHAR exclam
ENCODING 33
SWIDTH 257 0
DWIDTH 3 0
BBX 3 9 0 0
BITMAP
10
44
44
54
44
44
54
50
44
ENDCHAR
STARTCHAR quotedbl
ENCODING 34
SWIDTH 476 0
DWIDTH 6 0
BBX 6 5 0 4
BITMAP
5540
4510
5550
4510
5550
ENDCHAR
STARTCHAR numbersign
ENCODING 35
SWIDTH 1076 0
DWIDTH 13 0
BBX 13 9 0 0
BITMAP
14144000
45450540
45455840
55951440
44851940
55554440
45145500
45145500
54645500
ENDCHAR
STARTCHAR dollar
ENCODING 36
SWIDTH 453 0
DWIDTH 5 0
BBX 5 12 0 -2
BITMAP
0500
1100
0540
5440
4540
5500
1440
1980
4140
5500
1100
0500
ENDCHAR
STARTCHAR percent
ENCODING 37
SWIDTH 889 0
DWIDTH 11 0
BBX 11 9 0 0
BITMAP
100000
511400
551400
545400
454550
145554
005504
005544
005550
ENDCHAR
STARTCHAR ampersand
ENCODING 38
SWIDTH 627 0
DWIDTH 8 0
BBX 8 9 0 0
BITMAP
0550
1154
1144
0510
1440
1554
4A11
5514
5550
ENDCHAR
STARTCHAR quotesingle
ENCODING 39
SWIDTH 246 0
DWIDTH 3 0
BBX 3 5 0 4
BITMAP
54
44
54
44
54
ENDCHAR
STARTCHAR parenleft
ENCODING 40
SWIDTH 387 0
DWIDTH 5 0
BBX 5 10 0 -1
BITMAP
0500
1100
1500
4400
4400
9400
1500
1100
0440
0100
ENDCHAR
STARTCHAR parenright
ENCODING 41
SWIDTH 386 0
DWIDTH 5 0
BBX 5 10 0 -1
BITMAP
5400
4400
1500
0540
0440
0540
1500
4400
4400
5000
ENDCHAR
STARTCHAR asterisk
ENCODING 42
SWIDTH 517 0
DWIDTH 6 0
BBX 6 6 0 3
BITMAP
0500
0500
5550
1550
1540
1540
ENDCHAR
STARTCHAR plus
ENCODING 43
SWIDTH 458 0
DWIDTH 6 0
BBX 5 6 0 1
BITMAP
0500
0100
5540
5540
1500
0500
ENDCHAR
STARTCHAR comma
ENCODING 44
SWIDTH 228 0
DWIDTH 3 0
BBX 4 4 -1 -2
BITMAP
04
11
44
10
ENDCHAR
STARTCHAR hyphen
ENCODING 45
SWIDTH 465 0
DWIDTH 6 0
BBX 5 2 0 3
BITMAP
5540
5540
ENDCHAR
STARTCHAR period
ENCODING 46
SWIDTH 202 0
DWIDTH 2 0
BBX 2 2 0 0
BITMAP
50
50
ENDCHAR
STARTCHAR slash
ENCODING 47
SWIDTH 453 0
DWIDTH 5 0
BBX 5 8 0 0
BITMAP
0140
0440
0540
1100
1500
1500
4400
5400
ENDCHAR
STARTCHAR zero
ENCODING 48
SWIDTH 646 0
DWIDTH 8 0
BBX 8 9 0 0
BITMAP
0500
0480
1510
4554
9411
4455
1554
1910
0140
ENDCHAR
STARTCHAR one
ENCODING 49
SWIDTH 400 0
DWIDTH 5 0
BBX 5 9 0 0
BITMAP
0500
1440
4440
5540
0440
0440
0440
0440
0540
ENDCHAR
STARTCHAR two
ENCODING 50
SWIDTH 502 0
DWIDTH 6 0
BBX 6 8 0 0
BITMAP
1540
4550
5510
0150
0540
5100
5550
5550
ENDCHAR
STARTCHAR three
ENCODING 51
SWIDTH 456 0
DWIDTH 5 0
BBX 6 9 0 0
BITMAP
1000
4540
5540
1540
5500
2040
0950
5450
5500
ENDCHAR
STARTCHAR four
ENCODING 52
SWIDTH 514 0
DWIDTH 6 0
BBX 6 9 0 0
BITMAP
0040
0550
1110
1650
4650
5110
1550
0110
0110
ENDCHAR
STARTCHAR five
ENCODING 53
SWIDTH 500 0
DWIDTH 6 0
BBX 6 9 0 0
BITMAP
0040
5510
4550
5400
4150
1510
0010
5560
5550
ENDCHAR
STARTCHAR six
ENCODING 54
SWIDTH 520 0
DWIDTH 6 0
BBX 7 10 0 -1
BITMAP
0400
1100
1100
1500
1540
5450
4554
4410
5540
0400
ENDCHAR
STARTCHAR seven
ENCODING 55
SWIDTH 423 0
DWIDTH 5 0
BBX 5 9 0 0
BITMAP
0400
5540
5580
0540
0440
0500
1100
1100
1500
ENDCHAR
STARTCHAR eight
ENCODING 56
SWIDTH 527 0
DWIDTH 6 0
BBX 6 8 0 0
BITMAP
5550
5550
1510
1140
1440
0510
4510
6560
ENDCHAR
STARTCHAR nine
ENCODING 57
SWIDTH 500 0
DWIDTH 6 0
BBX 6 8 0 0
BITMAP
1550
4550
5610
4440
1840
0540
1100
1500
ENDCHAR
STARTCHAR colon
ENCODING 58
SWIDTH 245 0
DWIDTH 3 0
BBX 3 6 0 0
BITMAP
44
50
00
00
54
44
ENDCHAR
STARTCHAR semicolon
ENCODING 59
SWIDTH 270 0
DWIDTH 3 0
BBX 3 8 0 -2
BITMAP
14
14
00
00
10
44
50
50
ENDCHAR
STARTCHAR less
ENCODING 60
SWIDTH 445 0
DWIDTH 5 0
BBX 5 7 0 1
BITMAP
0100
0540
5540
4500
5500
1440
0540
ENDCHAR
STARTCHAR equal
ENCODING 61
SWIDTH 484 0
DWIDTH 6 0
BBX 6 6 0 1
BITMAP
5550
4110
1540
5550
4110
1540
ENDCHAR
STARTCHAR greater
ENCODING 62
SWIDTH 445 0
DWIDTH 5 0
BBX 5 7 0 1
BITMAP
1000
4500
5540
0440
1540
4540
5400
ENDCHAR
STARTCHAR question
ENCODING 63
SWIDTH 455 0
DWIDTH 5 0
BBX 6 9 0 0
BITMAP
1000
4540
5440
0550
2140
1400
1400
1400
1400
ENDCHAR
STARTCHAR at
ENCODING 64
SWIDTH 812 0
DWIDTH 10 0
BBX 10 10 0 -1
BITMAP
155500
555540
455540
555540
445540
555510
451150
455540
154000
014000
ENDCHAR
STARTCHAR A
ENCODING 65
SWIDTH 507 0
DWIDTH 6 0
BBX 7 9 0 0
BITMAP
0400
1100
1140
1540
1540
5650
4504
4550
5450
ENDCHAR
STARTCHAR B
ENCODING 66
SWIDTH 533 0
DWIDTH 6 0
BBX 7 10 0 -1
BITMAP
1500
5150
5504
5550
4550
5550
4650
5550
5540
1000
ENDCHAR
STARTCHAR C
ENCODING 67
SWIDTH 515 0
DWIDTH 6 0
BBX 6 10 0 -1
BITMAP
1500
1150
1550
5400
4400
5400
4550
4510
5550
1000
ENDCHAR
STARTCHAR D
ENCODING 68
SWIDTH 520 0
DWIDTH 6 0
BBX 7 10 0 -1
BITMAP
1400
5100
5480
5510
4444
5554
4950
4440
5500
0400
ENDCHAR
STARTCHAR E
ENCODING 69
SWIDTH 490 0
DWIDTH 6 0
BBX 6 9 0 0
BITMAP
1540
4510
4550
5400
4540
5540
4500
4550
5550
ENDCHAR
STARTCHAR F
ENCODING 70
SWIDTH 475 0
DWIDTH 6 0
BBX 6 9 0 0
BITMAP
1540
4510
4550
5400
4540
5540
4400
4400
5400
ENDCHAR
STARTCHAR G
ENCODING 71
SWIDTH 557 0
DWIDTH 7 0
BBX 7 10 0 -1
BITMAP
1500
1150
1550
5400
4454
5444
4554
4544
5554
1000
ENDCHAR
STARTCHAR H
ENCODING 72
SWIDTH 611 0
DWIDTH 7 0
BBX 8 9 0 0
BITMAP
1010
4444
4444
5454
4448
5551
4554
4544
5454
ENDCHAR
STARTCHAR I
ENCODING 73
SWIDTH 266 0
DWIDTH 3 0
BBX 3 9 0 0
BITMAP
10
44
44
54
44
54
44
44
54
ENDCHAR
STARTCHAR J
ENCODING 74
SWIDTH 484 0
DWIDTH 6 0
BBX 6 10 0 -1
BITMAP
0140
0110
0110
0150
1110
5150
4510
2110
0550
0500
ENDCHAR
STARTCHAR K
ENCODING 75
SWIDTH 541 0
DWIDTH 7 0
BBX 7 9 0 0
BITMAP
1000
4454
4544
5550
4440
5540
4A50
4510
5450
ENDCHAR
STARTCHAR L
ENCODING 76
SWIDTH 467 0
DWIDTH 6 0
BBX 6 9 0 0
BITMAP
1000
4400
4400
5400
4400
5400
4400
4550
5550
ENDCHAR
STARTCHAR M
ENCODING 77
SWIDTH 733 0
DWIDTH 9 0
BBX 9 9 0 0
BITMAP
141400
111100
111500
159500
458500
555900
455540
452440
555540
ENDCHAR
STARTCHAR N
ENCODING 78
SWIDTH 598 0
DWIDTH 7 0
BBX 7 9 0 0
BITMAP
1410
4544
4544
5594
4484
5554
4514
4514
5464
ENDCHAR
STARTCHAR O
ENCODING 79
SWIDTH 612 0
DWIDTH 7 0
BBX 7 10 0 -1
BITMAP
1500
1154
1554
5454
4444
5454
4554
4508
5554
1000
ENDCHAR
STARTCHAR P
ENCODING 80
SWIDTH 513 0
DWIDTH 6 0
BBX 7 9 0 0
BITMAP
1400
5150
5504
5550
4510
4540
4400
4400
4400
ENDCHAR
STARTCHAR Q
ENCODING 81
SWIDTH 612 0
DWIDTH 7 0
BBX 7 11 0 -2
BITMAP
1500
1154
1554
5454
4444
5454
4554
4508
5554
1440
0140
ENDCHAR
STARTCHAR R
ENCODING 82
SWIDTH 532 0
DWIDTH 6 0
BBX 7 10 0 -1
BITMAP
1400
5140
5504
5550
4650
4540
5950
4450
4454
1000
ENDCHAR
STARTCHAR S
ENCODING 83
SWIDTH 442 0
DWIDTH 5 0
BBX 6 9 0 0
BITMAP
0540
6400
4540
1400
1100
0540
0840
5510
5540
ENDCHAR
STARTCHAR T
ENCODING 84
SWIDTH 453 0
DWIDTH 5 0
BBX 6 9 0 0
BITMAP
5540
4410
5550
1500
1100
1100
1500
1100
1500
ENDCHAR
STARTCHAR U
ENCODING 85
SWIDTH 583 0
DWIDTH 7 0
BBX 7 10 0 -1
BITMAP
1450
1444
1444
5454
4444
5454
4554
4514
5564
1000
ENDCHAR
STARTCHAR V
ENCODING 86
SWIDTH 506 0
DWIDTH 6 0
BBX 6 9 0 -1
BITMAP
5450
4450
5550
4510
1640
1540
1440
1540
0400
ENDCHAR
STARTCHAR W
ENCODING 87
SWIDTH 735 0
DWIDTH 9 0
BBX 9 9 0 -1
BITMAP
505440
451440
565940
455500
155500
149100
145100
155100
040400
ENDCHAR
STARTCHAR X
ENCODING 88
SWIDTH 483 0
DWIDTH 6 0
BBX 6 8 0 0
BITMAP
5550
4510
1940
1440
1140
1540
4510
5150
ENDCHAR
STARTCHAR Y
ENCODING 89
SWIDTH 484 0
DWIDTH 6 0
BBX 6 8 0 0
BITMAP
5050
4510
5550
1440
0840
1100
1100
1500
ENDCHAR
STARTCHAR Z
ENCODING 90
SWIDTH 458 0
DWIDTH 6 0
BBX 6 9 0 0
BITMAP
1540
4450
5550
0540
1140
2100
4500
4940
5540
ENDCHAR
STARTCHAR bracketleft
ENCODING 91
SWIDTH 420 0
DWIDTH 5 0
BBX 5 10 0 -1
BITMAP
1540
4540
4400
5400
4400
4400
5400
4500
4440
1540
ENDCHAR
STARTCHAR backslash
ENCODING 92
SWIDTH 453 0
DWIDTH 5 0
BBX 5 8 0 0
BITMAP
4400
4400
1500
1100
0500
0440
0440
0140
ENDCHAR
STARTCHAR bracketright
ENCODING 93
SWIDTH 420 0
DWIDTH 5 0
BBX 5 10 0 -1
BITMAP
5500
5440
0440
0540
0440
0440
0540
1440
4440
5500
ENDCHAR
STARTCHAR asciicircum
ENCODING 94
SWIDTH 353 0
DWIDTH 4 0
BBX 4 3 0 5
BITMAP
14
55
55
ENDCHAR
STARTCHAR underscore
ENCODING 95
SWIDTH 499 0
DWIDTH 6 0
BBX 6 2 0 -3
BITMAP
5550
5550
ENDCHAR
STARTCHAR grave
ENCODING 96
SWIDTH 183 0
DWIDTH 2 0
BBX 2 3 0 9
BITMAP
50
50
10
ENDCHAR
STARTCHAR a
ENCODING 97
SWIDTH 507 0
DWIDTH 6 0
BBX 7 9 0 0
BITMAP
0400
1100
1140
1540
1540
5650
4504
4550
5450
ENDCHAR
STARTCHAR b
ENCODING 98
SWIDTH 533 0
DWIDTH 6 0
BBX 7 10 0 -1
BITMAP
1500
5150
5504
5550
4550
5550
4650
5550
5540
1000
ENDCHAR
STARTCHAR c
ENCODING 99
SWIDTH 515 0
DWIDTH 6 0
BBX 6 10 0 -1
BITMAP
1500
1150
1550
5400
4400
5400
4550
4510
5550
1000
ENDCHAR
STARTCHAR d
ENCODING 100
SWIDTH 520 0
DWIDTH 6 0
BBX 7 10 0 -1
BITMAP
1400
5100
5480
5510
4444
5554
4950
4440
5500
0400
ENDCHAR
STARTCHAR e
ENCODING 101
SWIDTH 490 0
DWIDTH 6 0
BBX 6 9 0 0
BITMAP
1540
4510
4550
5400
4540
5540
4500
4550
5550
ENDCHAR
STARTCHAR f
ENCODING 102
SWIDTH 475 0
DWIDTH 6 0
BBX 6 9 0 0
BITMAP
1540
4510
4550
5400
4540
5540
4400
4400
5400
ENDCHAR
STARTCHAR g
ENCODING 103
SWIDTH 557 0
DWIDTH 7 0
BBX 7 10 0 -1
BITMAP
1500
1150
1550
5400
4454
5444
4554
4544
5554
1000
ENDCHAR
STARTCHAR h
ENCODING 104
SWIDTH 611 0
DWIDTH 7 0
BBX 8 9 0 0
BITMAP
1010
4444
4444
5454
4448
5551
4554
4544
5454
ENDCHAR
STARTCHAR i
ENCODING 105
SWIDTH 266 0
DWIDTH 3 0
BBX 3 9 0 0
BITMAP
10
44
44
54
44
54
44
44
54
ENDCHAR
STARTCHAR j
ENCODING 106
SWIDTH 482 0
DWIDTH 6 0
BBX 6 10 0 -1
BITMAP
0140
0110
0110
0150
1110
5150
4510
2110
0550
0500
ENDCHAR
STARTCHAR k
ENCODING 107
SWIDTH 541 0
DWIDTH 7 0
BBX 7 9 0 0
BITMAP
1000
4454
4544
5550
4440
5540
4A50
4510
5450
ENDCHAR
STARTCHAR l
ENCODING 108
SWIDTH 467 0
DWIDTH 6 0
BBX 6 9 0 0
BITMAP
1000
4400
4400
5400
4400
5400
4400
4550
5550
ENDCHAR
STARTCHAR m
ENCODING 109
SWIDTH 733 0
DWIDTH 9 0
BBX 9 9 0 0
BITMAP
141400
111100
111500
159500
458500
555900
455540
452440
555540
ENDCHAR
STARTCHAR n
ENCODING 110
SWIDTH 598 0
DWIDTH 7 0
BBX 7 9 0 0
BITMAP
1410
4544
4544
5594
4484
5554
4514
4514
5464
ENDCHAR
STARTCHAR o
ENCODING 111
SWIDTH 612 0
DWIDTH 7 0
BBX 7 10 0 -1
BITMAP
1500
1154
1554
5454
4444
5454
4554
4508
5554
1000
ENDCHAR
STARTCHAR p
ENCODING 112
SWIDTH 513 0
DWIDTH 6 0
BBX 7 9 0 0
BITMAP
1400
5150
5504
5550
4510
4540
4400
4400
4400
ENDCHAR
STARTCHAR q
ENCODING 113
SWIDTH 612 0
DWIDTH 7 0
BBX 7 11 0 -2
BITMAP
1500
1154
1554
5454
4444
5454
4554
4508
5554
1440
0140
ENDCHAR
STARTCHAR r
ENCODING 114
SWIDTH 532 0
DWIDTH 6 0
BBX 7 10 0 -1
BITMAP
1400
5140
5504
5550
4650
4540
5950
4450
4454
1000
ENDCHAR
STARTCHAR s
ENCODING 115
SWIDTH 442 0
DWIDTH 5 0
BBX 6 9 0 0
BITMAP
0540
6400
4540
1400
1100
0540
0840
5510
5540
ENDCHAR
STARTCHAR t
ENCODING 116
SWIDTH 453 0
DWIDTH 5 0
BBX 6 9 0 0
BITMAP
5540
4410
5550
1500
1100
1100
1500
1100
1500
ENDCHAR
STARTCHAR u
ENCODING 117
SWIDTH 583 0
DWIDTH 7 0
BBX 7 10 0 -1
BITMAP
1450
1444
1444
5454
4444
5454
4554
4514
5564
1000
ENDCHAR
STARTCHAR v
ENCODING 118
SWIDTH 506 0
DWIDTH 6 0
BBX 6 9 0 -1
BITMAP
5450
4450
5550
4510
1640
1540
1440
1540
0400
ENDCHAR
STARTCHAR w
ENCODING 119
SWIDTH 735 0
DWIDTH 9 0
BBX 9 9 0 -1
BITMAP
505440
451440
565940
455500
155500
149100
145100
155100
040400
ENDCHAR
STARTCHAR x
ENCODING 120
SWIDTH 483 0
DWIDTH 6 0
BBX 6 8 0 0
BITMAP
5550
4510
1940
1440
1140
1540
4510
5150
ENDCHAR
STARTCHAR y
ENCODING 121
SWIDTH 484 0
DWIDTH 6 0
BBX 6 8 0 0
BITMAP
5050
4510
5550
1440
0840
1100
1100
1500
ENDCHAR
STARTCHAR z
ENCODING 122
SWIDTH 458 0
DWIDTH 6 0
BBX 6 9 0 0
BITMAP
1540
4450
5550
0540
1140
2100
4500
4940
5540
ENDCHAR
STARTCHAR braceleft
ENCODING 123
SWIDTH 473 0
DWIDTH 6 0
BBX 6 10 0 -1
BITMAP
1550
1150
1500
5540
4140
5540
1500
1100
1110
0550
ENDCHAR
STARTCHAR bar
ENCODING 124
SWIDTH 263 0
DWIDTH 3 0
BBX 3 10 0 -1
BITMAP
54
44
44
54
44
54
44
44
44
14
ENDCHAR
STARTCHAR braceright
ENCODING 125
SWIDTH 473 0
DWIDTH 6 0
BBX 6 10 0 -1
BITMAP
5500
5440
1500
1540
1410
1550
1500
1440
4440
5500
ENDCHAR
STARTCHAR asciitilde
ENCODING 126
SWIDTH 456 0
DWIDTH 5 0
BBX 5 3 0 3
BITMAP
1940
5540
5640
ENDCHAR
STARTCHAR nonbreakingspace
ENCODING 160
SWIDTH 200 0
DWIDTH 2 0
BBX 1 1 0 0
BITMAP
00
ENDCHAR
STARTCHAR exclamdown
ENCODING 161
SWIDTH 259 0
DWIDTH 3 0
BBX 3 9 0 0
BITMAP
10
44
14
54
44
44
54
44
44
ENDCHAR
STARTCHAR cent
ENCODING 162
SWIDTH 480 0
DWIDTH 6 0
BBX 6 12 0 -2
BITMAP
0500
0500
0540
1510
5140
5400
4400
4500
6550
0550
0500
0500
ENDCHAR
STARTCHAR sterling
ENCODING 163
SWIDTH 594 0
DWIDTH 7 0
BBX 7 8 0 0
BITMAP
0550
0910
1550
5150
5150
1540
1144
1554
ENDCHAR
STARTCHAR currency
ENCODING 164
SWIDTH 640 0
DWIDTH 8 0
BBX 8 7 0 1
BITMAP
5154
4551
1514
5151
2554
4455
5154
ENDCHAR
STARTCHAR yen
ENCODING 165
SWIDTH 575 0
DWIDTH 7 0
BBX 7 8 0 0
BITMAP
5454
4444
1650
1510
1550
1550
1500
0500
ENDCHAR
STARTCHAR brokenbar
ENCODING 166
SWIDTH 258 0
DWIDTH 3 0
BBX 3 12 0 -2
BITMAP
10
44
54
44
44
14
54
44
54
44
44
10
ENDCHAR
STARTCHAR section
ENCODING 167
SWIDTH 474 0
DWIDTH 6 0
BBX 6 9 0 0
BITMAP
1540
5000
5540
5580
1510
4940
5440
5540
5540
ENDCHAR
STARTCHAR dieresis
ENCODING 168
SWIDTH 351 0
DWIDTH 4 0
BBX 4 2 0 9
BITMAP
55
55
ENDCHAR
STARTCHAR copyright
ENCODING 169
SWIDTH 719 0
DWIDTH 9 0
BBX 9 9 0 0
BITMAP
155500
555540
515400
565500
510500
555540
515500
455500
655500
ENDCHAR
STARTCHAR ordfeminine
ENCODING 170
SWIDTH 455 0
DWIDTH 5 0
BBX 6 9 0 0
BITMAP
0500
1440
1440
5540
5540
5510
5140
1540
1540
ENDCHAR
STARTCHAR guillemotleft
ENCODING 171
SWIDTH 689 0
DWIDTH 8 0
BBX 8 6 0 1
BITMAP
0505
5151
4444
5555
1111
0404
ENDCHAR
STARTCHAR logicalnot
ENCODING 172
SWIDTH 591 0
DWIDTH 7 0
BBX 7 5 0 0
BITMAP
5560
4544
1144
0044
0014
ENDCHAR
STARTCHAR uni00AD
ENCODING 173
SWIDTH 465 0
DWIDTH 6 0
BBX 5 2 0 3
BITMAP
5540
5540
ENDCHAR
STARTCHAR registered
ENCODING 174
SWIDTH 719 0
DWIDTH 9 0
BBX 9 9 0 0
BITMAP
155500
555540
510400
565500
515500
554540
550500
455500
655500
ENDCHAR
STARTCHAR macron
ENCODING 175
SWIDTH 263 0
DWIDTH 3 0
BBX 3 2 0 9
BITMAP
54
54
ENDCHAR
STARTCHAR degree
ENCODING 176
SWIDTH 333 0
DWIDTH 4 0
BBX 4 4 0 4
BITMAP
14
55
55
14
ENDCHAR
STARTCHAR plusminus
ENCODING 177
SWIDTH 464 0
DWIDTH 6 0
BBX 6 9 0 -2
BITMAP
0500
0500
5540
5550
1500
0500
5540
4110
1540
ENDCHAR
STARTCHAR twosuperior
ENCODING 178
SWIDTH 324 0
DWIDTH 4 0
BBX 4 5 0 3
BITMAP
41
14
44
51
14
ENDCHAR
STARTCHAR threesuperior
ENCODING 179
SWIDTH 332 0
DWIDTH 4 0
BBX 4 5 0 3
BITMAP
41
15
15
45
10
ENDCHAR
STARTCHAR acute
ENCODING 180
SWIDTH 202 0
DWIDTH 2 0
BBX 3 3 0 9
BITMAP
10
54
50
ENDCHAR
STARTCHAR mu
ENCODING 181
SWIDTH 582 0
DWIDTH 7 0
BBX 7 11 0 -2
BITMAP
0010
1444
1444
4454
5444
4444
4454
5514
4564
4400
1400
ENDCHAR
STARTCHAR paragraph
ENCODING 182
SWIDTH 556 0
DWIDTH 7 0
BBX 6 9 0 0
BITMAP
0150
1820
4550
5850
5150
0450
0150
0050
0050
ENDCHAR
STARTCHAR periodcentered
ENCODING 183
SWIDTH 215 0
DWIDTH 3 0
BBX 2 3 0 3
BITMAP
10
40
50
ENDCHAR
STARTCHAR cedilla
ENCODING 184
SWIDTH 237 0
DWIDTH 3 0
BBX 3 4 0 -3
BITMAP
14
14
54
50
ENDCHAR
STARTCHAR onesuperior
ENCODING 185
SWIDTH 286 0
DWIDTH 3 0
BBX 3 5 0 3
BITMAP
44
54
14
14
04
ENDCHAR
STARTCHAR ordmasculine
ENCODING 186
SWIDTH 476 0
DWIDTH 6 0
BBX 6 9 0 0
BITMAP
1400
4150
5610
4510
4550
5110
1540
1540
1540
ENDCHAR
STARTCHAR guillemotright
ENCODING 187
SWIDTH 689 0
DWIDTH 8 0
BBX 8 6 0 1
BITMAP
5050
4545
1515
1616
4444
1010
ENDCHAR
STARTCHAR onequarter
ENCODING 188
SWIDTH 790 0
DWIDTH 9 0
BBX 9 9 0 0
BITMAP
040000
145000
555000
115000
111100
051540
015140
015540
014140
ENDCHAR
STARTCHAR onehalf
ENCODING 189
SWIDTH 771 0
DWIDTH 9 0
BBX 9 9 0 0
BITMAP
040000
145000
555000
115000
111500
051040
014540
014140
014540
ENDCHAR
STARTCHAR threequarters
ENCODING 190
SWIDTH 817 0
DWIDTH 10 0
BBX 10 8 0 0
BITMAP
415400
154400
155000
455040
105050
011550
010950
014050
ENDCHAR
STARTCHAR questiondown
ENCODING 191
SWIDTH 455 0
DWIDTH 5 0
BBX 5 9 0 0
BITMAP
0100
0440
0100
0540
0540
5100
5500
5440
0540
ENDCHAR
STARTCHAR Agrave
ENCODING 192
SWIDTH 507 0
DWIDTH 6 0
BBX 7 12 0 0
BITMAP
0400
1100
0500
0400
1100
1140
1540
1540
5650
4504
4550
5450
ENDCHAR
STARTCHAR Aacute
ENCODING 193
SWIDTH 507 0
DWIDTH 6 0
BBX 7 12 0 0
BITMAP
0040
0140
0140
0400
1100
1140
1540
1540
5650
4504
4550
5450
ENDCHAR
STARTCHAR Acircumflex
ENCODING 194
SWIDTH 507 0
DWIDTH 6 0
BBX 7 12 0 0
BITMAP
0600
1540
1540
0400
1100
1140
1540
1540
5650
4504
4550
5450
ENDCHAR
STARTCHAR Atilde
ENCODING 195
SWIDTH 507 0
DWIDTH 6 0
BBX 7 12 0 0
BITMAP
1550
1550
1580
0400
1100
1140
1540
1540
5650
4504
4550
5450
ENDCHAR
STARTCHAR Adieresis
ENCODING 196
SWIDTH 507 0
DWIDTH 6 0
BBX 7 11 0 0
BITMAP
1540
1540
0400
1100
1140
1540
1540
5650
4504
4550
5450
ENDCHAR
STARTCHAR Aring
ENCODING 197
SWIDTH 507 0
DWIDTH 6 0
BBX 7 13 0 0
BITMAP
0500
0540
1540
1540
0400
1100
1140
1540
1540
5650
4504
4550
5450
ENDCHAR
STARTCHAR AE
ENCODING 198
SWIDTH 797 0
DWIDTH 10 0
BBX 10 9 0 0
BITMAP
001540
014510
044550
059400
114540
115540
444900
454510
505540
ENDCHAR
STARTCHAR Ccedilla
ENCODING 199
SWIDTH 515 0
DWIDTH 6 0
BBX 6 12 0 -3
BITMAP
1500
1150
1550
5400
4400
5400
4550
4510
5550
1140
1540
0400
ENDCHAR
STARTCHAR Egrave
ENCODING 200
SWIDTH 490 0
DWIDTH 6 0
BBX 6 12 0 0
BITMAP
0400
0500
0500
1540
4510
4550
5400
4540
5540
4500
4550
5550
ENDCHAR
STARTCHAR Eacute
ENCODING 201
SWIDTH 490 0
DWIDTH 6 0
BBX 6 12 0 0
BITMAP
0140
0140
0500
1540
4510
4550
5400
4540
5540
4500
4550
5550
ENDCHAR
STARTCHAR Ecircumflex
ENCODING 202
SWIDTH 490 0
DWIDTH 6 0
BBX 6 12 0 0
BITMAP
0600
1540
1540
1540
4510
4550
5400
4540
5540
4500
4550
5550
ENDCHAR
STARTCHAR Edieresis
ENCODING 203
SWIDTH 490 0
DWIDTH 6 0
BBX 6 11 0 0
BITMAP
1540
1540
1540
4510
4550
5400
4540
5540
4500
4550
5550
ENDCHAR
STARTCHAR Igrave
ENCODING 204
SWIDTH 266 0
DWIDTH 3 0
BBX 3 12 0 0
BITMAP
50
50
50
10
44
44
54
44
54
44
44
54
ENDCHAR
STARTCHAR Iacute
ENCODING 205
SWIDTH 266 0
DWIDTH 3 0
BBX 4 12 0 0
BITMAP
04
15
14
14
44
44
54
44
54
44
44
54
ENDCHAR
STARTCHAR Icircumflex
ENCODING 206
SWIDTH 266 0
DWIDTH 3 0
BBX 4 12 0 0
BITMAP
14
54
55
10
44
44
54
44
54
44
44
54
ENDCHAR
STARTCHAR Idieresis
ENCODING 207
SWIDTH 266 0
DWIDTH 3 0
BBX 5 11 -1 0
BITMAP
5540
1540
0400
1100
1100
1500
1100
1500
1100
1100
1500
ENDCHAR
STARTCHAR Eth
ENCODING 208
SWIDTH 669 0
DWIDTH 8 0
BBX 8 10 0 -1
BITMAP
0140
0510
0548
4591
4555
5555
0494
0454
0550
0040
ENDCHAR
STARTCHAR Ntilde
ENCODING 209
SWIDTH 598 0
DWIDTH 7 0
BBX 7 12 0 0
BITMAP
0554
0550
1550
1410
4544
4544
5594
4484
5554
4514
4514
5464
ENDCHAR
STARTCHAR Ograve
ENCODING 210
SWIDTH 612 0
DWIDTH 7 0
BBX 7 13 0 -1
BITMAP
0100
0440
0140
1500
1154
1554
5454
4444
5454
4554
4508
5554
1000
ENDCHAR
STARTCHAR Oacute
ENCODING 211
SWIDTH 612 0
DWIDTH 7 0
BBX 7 13 0 -1
BITMAP
0050
0050
0140
1500
1154
1554
5454
4444
5454
4554
4508
5554
1000
ENDCHAR
STARTCHAR Ocircumflex
ENCODING 212
SWIDTH 612 0
DWIDTH 7 0
BBX 7 13 0 -1
BITMAP
0180
0550
0550
1500
1154
1554
5454
4444
5454
4554
4508
5554
1000
ENDCHAR
STARTCHAR Otilde
ENCODING 213
SWIDTH 612 0
DWIDTH 7 0
BBX 7 13 0 -1
BITMAP
0554
0550
0550
1500
1154
1554
5454
4444
5454
4554
4508
5554
1000
ENDCHAR
STARTCHAR Odieresis
ENCODING 214
SWIDTH 612 0
DWIDTH 7 0
BBX 7 12 0 -1
BITMAP
1550
1550
1500
1154
1554
5454
4444
5454
4554
4508
5554
1000
ENDCHAR
STARTCHAR multiply
ENCODING 215
SWIDTH 421 0
DWIDTH 5 0
BBX 5 5 0 1
BITMAP
5540
4540
5540
4440
1100
ENDCHAR
STARTCHAR Oslash
ENCODING 216
SWIDTH 612 0
DWIDTH 7 0
BBX 7 10 0 -1
BITMAP
1510
1154
1544
5554
4554
5854
4554
5208
4554
1400
ENDCHAR
STARTCHAR Ugrave
ENCODING 217
SWIDTH 583 0
DWIDTH 7 0
BBX 7 13 0 -1
BITMAP
0500
0500
0100
1450
1444
1444
5454
4444
5454
4554
4514
5564
1000
ENDCHAR
STARTCHAR Uacute
ENCODING 218
SWIDTH 583 0
DWIDTH 7 0
BBX 7 13 0 -1
BITMAP
0040
0140
0140
1450
1444
1444
5454
4444
5454
4554
4514
5564
1000
ENDCHAR
STARTCHAR Ucircumflex
ENCODING 219
SWIDTH 583 0
DWIDTH 7 0
BBX 7 13 0 -1
BITMAP
0540
0540
1540
1450
1444
1444
5454
4444
5454
4554
4514
5564
1000
ENDCHAR
STARTCHAR Udieresis
ENCODING 220
SWIDTH 583 0
DWIDTH 7 0
BBX 7 12 0 -1
BITMAP
1550
1550
1450
1444
1444
5454
4444
5454
4554
4514
5564
1000
ENDCHAR
STARTCHAR Yacute
ENCODING 221
SWIDTH 484 0
DWIDTH 6 0
BBX 6 11 0 0
BITMAP
0140
0140
0500
5050
4510
5550
1440
0840
1100
1100
1500
ENDCHAR
STARTCHAR Thorn
ENCODING 222
SWIDTH 520 0
DWIDTH 6 0
BBX 7 9 0 0
BITMAP
1000
5400
5140
5514
4550
4510
4540
4500
4400
ENDCHAR
STARTCHAR germandbls
ENCODING 223
SWIDTH 884 0
DWIDTH 11 0
BBX 11 9 0 0
BITMAP
054150
641944
455150
140540
110440
054150
084150
552544
555550
ENDCHAR
STARTCHAR agrave
ENCODING 224
SWIDTH 507 0
DWIDTH 6 0
BBX 7 12 0 0
BITMAP
0400
1100
0500
0400
1100
1140
1540
1540
5650
4504
4550
5450
ENDCHAR
STARTCHAR aacute
ENCODING 225
SWIDTH 507 0
DWIDTH 6 0
BBX 7 12 0 0
BITMAP
0040
0140
0140
0400
1100
1140
1540
1540
5650
4504
4550
5450
ENDCHAR
STARTCHAR acircumflex
ENCODING 226
SWIDTH 507 0
DWIDTH 6 0
BBX 7 12 0 0
BITMAP
0600
1540
1540
0400
1100
1140
1540
1540
5650
4504
4550
5450
ENDCHAR
STARTCHAR atilde
ENCODING 227
SWIDTH 507 0
DWIDTH 6 0
BBX 7 12 0 0
BITMAP
1550
1550
1580
0400
1100
1140
1540
1540
5650
4504
4550
5450
ENDCHAR
STARTCHAR adieresis
ENCODING 228
SWIDTH 507 0
DWIDTH 6 0
BBX 7 11 0 0
BITMAP
1540
1540
0400
1100
1140
1540
1540
5650
4504
4550
5450
ENDCHAR
STARTCHAR aring
ENCODING 229
SWIDTH 507 0
DWIDTH 6 0
BBX 7 13 0 0
BITMAP
0500
0540
1540
1540
0400
1100
1140
1540
1540
5650
4504
4550
5450
ENDCHAR
STARTCHAR ae
ENCODING 230
SWIDTH 797 0
DWIDTH 10 0
BBX 10 9 0 0
BITMAP
001540
014510
044550
059400
114540
115540
444900
454510
505540
ENDCHAR
STARTCHAR ccedilla
ENCODING 231
SWIDTH 515 0
DWIDTH 6 0
BBX 6 12 0 -3
BITMAP
1500
1150
1550
5400
4400
5400
4550
4510
5550
1140
1540
0400
ENDCHAR
STARTCHAR egrave
ENCODING 232
SWIDTH 490 0
DWIDTH 6 0
BBX 6 12 0 0
BITMAP
0400
0500
0500
1540
4510
4550
5400
4540
5540
4500
4550
5550
ENDCHAR
STARTCHAR eacute
ENCODING 233
SWIDTH 490 0
DWIDTH 6 0
BBX 6 12 0 0
BITMAP
0140
0140
0500
1540
4510
4550
5400
4540
5540
4500
4550
5550
ENDCHAR
STARTCHAR ecircumflex
ENCODING 234
SWIDTH 490 0
DWIDTH 6 0
BBX 6 12 0 0
BITMAP
0600
1540
1540
1540
4510
4550
5400
4540
5540
4500
4550
5550
ENDCHAR
STARTCHAR edieresis
ENCODING 235
SWIDTH 490 0
DWIDTH 6 0
BBX 6 11 0 0
BITMAP
1540
1540
1540
4510
4550
5400
4540
5540
4500
4550
5550
ENDCHAR
STARTCHAR igrave
ENCODING 236
SWIDTH 266 0
DWIDTH 3 0
BBX 3 12 0 0
BITMAP
50
50
50
10
44
44
54
44
54
44
44
54
ENDCHAR
STARTCHAR iacute
ENCODING 237
SWIDTH 266 0
DWIDTH 3 0
BBX 4 12 0 0
BITMAP
04
15
14
14
44
44
54
44
54
44
44
54
ENDCHAR
STARTCHAR icircumflex
ENCODING 238
SWIDTH 266 0
DWIDTH 3 0
BBX 4 12 0 0
BITMAP
14
54
55
10
44
44
54
44
54
44
44
54
ENDCHAR
STARTCHAR idieresis
ENCODING 239
SWIDTH 266 0
DWIDTH 3 0
BBX 5 11 -1 0
BITMAP
5540
1540
0400
1100
1100
1500
1100
1500
1100
1100
1500
ENDCHAR
STARTCHAR eth
ENCODING 240
SWIDTH 669 0
DWIDTH 8 0
BBX 8 10 0 -1
BITMAP
0140
0510
0548
4591
4555
5555
0494
0454
0550
0040
ENDCHAR
STARTCHAR ntilde
ENCODING 241
SWIDTH 598 0
DWIDTH 7 0
BBX 7 12 0 0
BITMAP
0554
0550
1550
1410
4544
4544
5594
4484
5554
4514
4514
5464
ENDCHAR
STARTCHAR ograve
ENCODING 242
SWIDTH 612 0
DWIDTH 7 0
BBX 7 13 0 -1
BITMAP
0100
0440
0140
1500
1154
1554
5454
4444
5454
4554
4508
5554
1000
ENDCHAR
STARTCHAR oacute
ENCODING 243
SWIDTH 612 0
DWIDTH 7 0
BBX 7 13 0 -1
BITMAP
0050
0050
0140
1500
1154
1554
5454
4444
5454
4554
4508
5554
1000
ENDCHAR
STARTCHAR ocircumflex
ENCODING 244
SWIDTH 612 0
DWIDTH 7 0
BBX 7 13 0 -1
BITMAP
0180
0550
0550
1500
1154
1554
5454
4444
5454
4554
4508
5554
1000
ENDCHAR
STARTCHAR otilde
ENCODING 245
SWIDTH 612 0
DWIDTH 7 0
BBX 7 13 0 -1
BITMAP
0554
0550
0550
1500
1154
1554
5454
4444
5454
4554
4508
5554
1000
ENDCHAR
STARTCHAR odieresis
ENCODING 246
SWIDTH 612 0
DWIDTH 7 0
BBX 7 12 0 -1
BITMAP
1550
1550
1500
1154
1554
5454
4444
5454
4554
4508
5554
1000
ENDCHAR
STARTCHAR divide
ENCODING 247
SWIDTH 457 0
DWIDTH 5 0
BBX 5 8 0 0
BITMAP
0400
0100
0500
5540
5540
0500
0500
0400
ENDCHAR
STARTCHAR oslash
ENCODING 248
SWIDTH 612 0
DWIDTH 7 0
BBX 7 10 0 -1
BITMAP
1510
1154
1544
5554
4554
5854
4554
5208
4554
1400
ENDCHAR
STARTCHAR ugrave
ENCODING 249
SWIDTH 583 0
DWIDTH 7 0
BBX 7 13 0 -1
BITMAP
0500
0500
0100
1450
1444
1444
5454
4444
5454
4554
4514
5564
1000
ENDCHAR
STARTCHAR uacute
ENCODING 250
SWIDTH 583 0
DWIDTH 7 0
BBX 7 13 0 -1
BITMAP
0040
0140
0140
1450
1444
1444
5454
4444
5454
4554
4514
5564
1000
ENDCHAR
STARTCHAR ucircumflex
ENCODING 251
SWIDTH 583 0
DWIDTH 7 0
BBX 7 13 0 -1
BITMAP
0540
0540
1540
1450
1444
1444
5454
4444
5454
4554
4514
5564
1000
ENDCHAR
STARTCHAR udieresis
ENCODING 252
SWIDTH 583 0
DWIDTH 7 0
BBX 7 12 0 -1
BITMAP
1550
1550
1450
1444
1444
5454
4444
5454
4554
4514
5564
1000
ENDCHAR
STARTCHAR yacute
ENCODING 253
SWIDTH 484 0
DWIDTH 6 0
BBX 6 11 0 0
BITMAP
0140
0140
0500
5050
4510
5550
1440
0840
1100
1100
1500
ENDCHAR
STARTCHAR thorn
ENCODING 254
SWIDTH 520 0
DWIDTH 6 0
BBX 7 9 0 0
BITMAP
1000
5400
5140
5514
4550
4510
4540
4500
4400
ENDCHAR
STARTCHAR ydieresis
ENCODING 255
SWIDTH 484 0
DWIDTH 6 0
BBX 6 11 0 0
BITMAP
1540
1540
0000
5050
4510
5550
1440
0840
1100
1100
1500
ENDCHAR
STARTCHAR Amacron
ENCODING 256
SWIDTH 507 0
DWIDTH 6 0
BBX 7 11 0 0
BITMAP
0540
1540
0400
1100
1140
1540
1540
5650
4504
4550
5450
ENDCHAR
STARTCHAR amacron
ENCODING 257
SWIDTH 507 0
DWIDTH 6 0
BBX 7 11 0 0
BITMAP
0540
1540
0400
1100
1140
1540
1540
5650
4504
4550
5450
ENDCHAR
STARTCHAR Abreve
ENCODING 258
SWIDTH 507 0
DWIDTH 6 0
BBX 7 12 0 0
BITMAP
1540
1540
1940
0400
1100
1140
1540
1540
5650
4504
4550
5450
ENDCHAR
STARTCHAR abreve
ENCODING 259
SWIDTH 507 0
DWIDTH 6 0
BBX 7 12 0 0
BITMAP
1540
1540
1940
0400
1100
1140
1540
1540
5650
4504
4550
5450
ENDCHAR
STARTCHAR Aogonek
ENCODING 260
SWIDTH 507 0
DWIDTH 6 0
BBX 7 12 0 -3
BITMAP
0400
1100
1140
1540
1540
5650
4504
4550
5450
0050
0094
0010
ENDCHAR
STARTCHAR aogonek
ENCODING 261
SWIDTH 507 0
DWIDTH 6 0
BBX 7 12 0 -3
BITMAP
0400
1100
1140
1540
1540
5650
4504
4550
5450
0050
0094
0010
ENDCHAR
STARTCHAR Cacute
ENCODING 262
SWIDTH 515 0
DWIDTH 6 0
BBX 6 13 0 -1
BITMAP
0040
0150
0140
1500
1150
1550
5400
4400
5400
4550
4510
5550
1000
ENDCHAR
STARTCHAR cacute
ENCODING 263
SWIDTH 515 0
DWIDTH 6 0
BBX 6 13 0 -1
BITMAP
0040
0150
0140
1500
1150
1550
5400
4400
5400
4550
4510
5550
1000
ENDCHAR
STARTCHAR Ccircumflex
ENCODING 264
SWIDTH 515 0
DWIDTH 6 0
BBX 6 13 0 -1
BITMAP
0140
0540
0550
1500
1150
1550
5400
4400
5400
4550
4510
5550
1000
ENDCHAR
STARTCHAR ccircumflex
ENCODING 265
SWIDTH 515 0
DWIDTH 6 0
BBX 6 13 0 -1
BITMAP
0140
0540
0550
1500
1150
1550
5400
4400
5400
4550
4510
5550
1000
ENDCHAR
STARTCHAR Cdotaccent
ENCODING 266
SWIDTH 515 0
DWIDTH 6 0
BBX 6 12 0 -1
BITMAP
0140
0140
1500
1150
1550
5400
4400
5400
4550
4510
5550
1000
ENDCHAR
STARTCHAR cdotaccent
ENCODING 267
SWIDTH 515 0
DWIDTH 6 0
BBX 6 12 0 -1
BITMAP
0140
0140
1500
1150
1550
5400
4400
5400
4550
4510
5550
1000
ENDCHAR
STARTCHAR Ccaron
ENCODING 268
SWIDTH 515 0
DWIDTH 6 0
BBX 6 13 0 -1
BITMAP
0550
0540
0140
1500
1150
1550
5400
4400
5400
4550
4510
5550
1000
ENDCHAR
STARTCHAR ccaron
ENCODING 269
SWIDTH 515 0
DWIDTH 6 0
BBX 6 13 0 -1
BITMAP
0550
0540
0140
1500
1150
1550
5400
4400
5400
4550
4510
5550
1000
ENDCHAR
STARTCHAR Dcaron
ENCODING 270
SWIDTH 520 0
DWIDTH 6 0
BBX 7 13 0 -1
BITMAP
1540
1540
0600
1400
5100
5480
5510
4444
5554
4950
4440
5500
0400
ENDCHAR
STARTCHAR dcaron
ENCODING 271
SWIDTH 520 0
DWIDTH 6 0
BBX 7 13 0 -1
BITMAP
1540
1540
0600
1400
5100
5480
5510
4444
5554
4950
4440
5500
0400
ENDCHAR
STARTCHAR Dcroat
ENCODING 272
SWIDTH 669 0
DWIDTH 8 0
BBX 8 10 0 -1
BITMAP
0140
0510
0548
4591
4555
5555
0494
0454
0550
0040
ENDCHAR
STARTCHAR dcroat
ENCODING 273
SWIDTH 669 0
DWIDTH 8 0
BBX 8 10 0 -1
BITMAP
0140
0510
0548
4591
4555
5555
0494
0454
0550
0040
ENDCHAR
STARTCHAR Emacron
ENCODING 274
SWIDTH 490 0
DWIDTH 6 0
BBX 6 11 0 0
BITMAP
0500
1540
1540
4510
4550
5400
4540
5540
4500
4550
5550
ENDCHAR
STARTCHAR emacron
ENCODING 275
SWIDTH 490 0
DWIDTH 6 0
BBX 6 11 0 0
BITMAP
0500
1540
1540
4510
4550
5400
4540
5540
4500
4550
5550
ENDCHAR
STARTCHAR Ebreve
ENCODING 276
SWIDTH 490 0
DWIDTH 6 0
BBX 6 12 0 0
BITMAP
1540
1540
1940
1540
4510
4550
5400
4540
5540
4500
4550
5550
ENDCHAR
STARTCHAR ebreve
ENCODING 277
SWIDTH 490 0
DWIDTH 6 0
BBX 6 12 0 0
BITMAP
1540
1540
1940
1540
4510
4550
5400
4540
5540
4500
4550
5550
ENDCHAR
STARTCHAR Edotaccent
ENCODING 278
SWIDTH 490 0
DWIDTH 6 0
BBX 6 11 0 0
BITMAP
0500
0500
1540
4510
4550
5400
4540
5540
4500
4550
5550
ENDCHAR
STARTCHAR edotaccent
ENCODING 279
SWIDTH 490 0
DWIDTH 6 0
BBX 6 11 0 0
BITMAP
0500
0500
1540
4510
4550
5400
4540
5540
4500
4550
5550
ENDCHAR
STARTCHAR Eogonek
ENCODING 280
SWIDTH 490 0
DWIDTH 6 0
BBX 6 12 0 -3
BITMAP
1540
4510
4550
5400
4540
5540
4500
4550
5550
0140
0150
0040
ENDCHAR
STARTCHAR eogonek
ENCODING 281
SWIDTH 490 0
DWIDTH 6 0
BBX 6 12 0 -3
BITMAP
1540
4510
4550
5400
4540
5540
4500
4550
5550
0140
0150
0040
ENDCHAR
STARTCHAR Ecaron
ENCODING 282
SWIDTH 490 0
DWIDTH 6 0
BBX 6 12 0 0
BITMAP
1540
0540
0600
1540
4510
4550
5400
4540
5540
4500
4550
5550
ENDCHAR
STARTCHAR ecaron
ENCODING 283
SWIDTH 490 0
DWIDTH 6 0
BBX 6 12 0 0
BITMAP
1540
0540
0600
1540
4510
4550
5400
4540
5540
4500
4550
5550
ENDCHAR
STARTCHAR Gcircumflex
ENCODING 284
SWIDTH 557 0
DWIDTH 7 0
BBX 7 13 0 -1
BITMAP
0540
0540
0550
1500
1150
1550
5400
4454
5444
4554
4544
5554
1000
ENDCHAR
STARTCHAR gcircumflex
ENCODING 285
SWIDTH 557 0
DWIDTH 7 0
BBX 7 13 0 -1
BITMAP
0540
0540
0550
1500
1150
1550
5400
4454
5444
4554
4544
5554
1000
ENDCHAR
STARTCHAR Gbreve
ENCODING 286
SWIDTH 557 0
DWIDTH 7 0
BBX 7 13 0 -1
BITMAP
1450
0550
0540
1500
1150
1550
5400
4454
5444
4554
4544
5554
1000
ENDCHAR
STARTCHAR gbreve
ENCODING 287
SWIDTH 557 0
DWIDTH 7 0
BBX 7 13 0 -1
BITMAP
1450
0550
0540
1500
1150
1550
5400
4454
5444
4554
4544
5554
1000
ENDCHAR
STARTCHAR Gdotaccent
ENCODING 288
SWIDTH 557 0
DWIDTH 7 0
BBX 7 12 0 -1
BITMAP
0140
0140
1500
1150
1550
5400
4454
5444
4554
4544
5554
1000
ENDCHAR
STARTCHAR gdotaccent
ENCODING 289
SWIDTH 557 0
DWIDTH 7 0
BBX 7 12 0 -1
BITMAP
0140
0140
1500
1150
1550
5400
4454
5444
4554
4544
5554
1000
ENDCHAR
STARTCHAR Gcommaaccent
ENCODING 290
SWIDTH 557 0
DWIDTH 7 0
BBX 7 12 0 -3
BITMAP
1500
1150
1550
5400
4454
5444
4554
4544
5554
1100
0500
0500
ENDCHAR
STARTCHAR gcommaaccent
ENCODING 291
SWIDTH 557 0
DWIDTH 7 0
BBX 7 12 0 -3
BITMAP
1500
1150
1550
5400
4454
5444
4554
4544
5554
1100
0500
0500
ENDCHAR
STARTCHAR Hcircumflex
ENCODING 292
SWIDTH 611 0
DWIDTH 7 0
BBX 8 12 0 0
BITMAP
0140
0540
0550
1010
4444
4444
5454
4448
5551
4554
4544
5454
ENDCHAR
STARTCHAR hcircumflex
ENCODING 293
SWIDTH 611 0
DWIDTH 7 0
BBX 8 12 0 0
BITMAP
0140
0540
0550
1010
4444
4444
5454
4448
5551
4554
4544
5454
ENDCHAR
STARTCHAR Hbar
ENCODING 294
SWIDTH 706 0
DWIDTH 8 0
BBX 9 9 0 0
BITMAP
041400
111100
526540
655540
111500
166100
121500
125100
151500
ENDCHAR
STARTCHAR hbar
ENCODING 295
SWIDTH 706 0
DWIDTH 8 0
BBX 9 9 0 0
BITMAP
041400
111100
526540
655540
111500
166100
121500
125100
151500
ENDCHAR
STARTCHAR Itilde
ENCODING 296
SWIDTH 266 0
DWIDTH 3 0
BBX 6 12 -1 0
BITMAP
1950
5540
5540
0400
1100
1100
1500
1100
1500
1100
1100
1500
ENDCHAR
STARTCHAR itilde
ENCODING 297
SWIDTH 266 0
DWIDTH 3 0
BBX 6 12 -1 0
BITMAP
1950
5540
5540
0400
1100
1100
1500
1100
1500
1100
1100
1500
ENDCHAR
STARTCHAR Imacron
ENCODING 298
SWIDTH 266 0
DWIDTH 3 0
BBX 3 11 0 0
BITMAP
54
54
10
44
44
54
44
54
44
44
54
ENDCHAR
STARTCHAR imacron
ENCODING 299
SWIDTH 266 0
DWIDTH 3 0
BBX 3 11 0 0
BITMAP
54
54
10
44
44
54
44
54
44
44
54
ENDCHAR
STARTCHAR Ibreve
ENCODING 300
SWIDTH 266 0
DWIDTH 3 0
BBX 4 12 0 0
BITMAP
55
55
54
10
44
44
54
44
54
44
44
54
ENDCHAR
STARTCHAR ibreve
ENCODING 301
SWIDTH 266 0
DWIDTH 3 0
BBX 4 12 0 0
BITMAP
55
55
54
10
44
44
54
44
54
44
44
54
ENDCHAR
STARTCHAR Iogonek
ENCODING 302
SWIDTH 266 0
DWIDTH 3 0
BBX 3 12 0 -3
BITMAP
10
44
44
54
44
54
44
44
54
50
54
14
ENDCHAR
STARTCHAR iogonek
ENCODING 303
SWIDTH 266 0
DWIDTH 3 0
BBX 3 12 0 -3
BITMAP
10
44
44
54
44
54
44
44
54
50
54
14
ENDCHAR
STARTCHAR Idotaccent
ENCODING 304
SWIDTH 266 0
DWIDTH 3 0
BBX 3 11 0 0
BITMAP
54
14
10
44
44
54
44
54
44
44
54
ENDCHAR
STARTCHAR dotlessi
ENCODING 305
SWIDTH 266 0
DWIDTH 3 0
BBX 3 9 0 0
BITMAP
10
44
44
54
44
54
44
44
54
ENDCHAR
STARTCHAR IJ
ENCODING 306
SWIDTH 750 0
DWIDTH 9 0
BBX 9 10 0 -1
BITMAP
100100
440440
440440
540540
444440
555540
451440
448440
541140
000400
ENDCHAR
STARTCHAR ij
ENCODING 307
SWIDTH 749 0
DWIDTH 9 0
BBX 9 10 0 -1
BITMAP
100100
440440
440440
540540
444440
555540
451440
448440
541140
000400
ENDCHAR
STARTCHAR Jcircumflex
ENCODING 308
SWIDTH 484 0
DWIDTH 6 0
BBX 6 13 0 -1
BITMAP
0180
0550
0550
0140
0110
0110
0150
1110
5150
4510
2110
0550
0500
ENDCHAR
STARTCHAR jcircumflex
ENCODING 309
SWIDTH 482 0
DWIDTH 6 0
BBX 6 13 0 -1
BITMAP
0180
0550
0550
0140
0110
0110
0150
1110
5150
4510
2110
0550
0500
ENDCHAR
STARTCHAR Kcommaaccent
ENCODING 310
SWIDTH 541 0
DWIDTH 7 0
BBX 7 12 0 -3
BITMAP
1000
4454
4544
5550
4440
5540
4A50
4510
5450
0100
0500
1400
ENDCHAR
STARTCHAR kcommaaccent
ENCODING 311
SWIDTH 541 0
DWIDTH 7 0
BBX 7 12 0 -3
BITMAP
1000
4454
4544
5550
4440
5540
4A50
4510
5450
0100
0500
1400
ENDCHAR
STARTCHAR kgreenlandic
ENCODING 312
SWIDTH 541 0
DWIDTH 7 0
BBX 7 9 0 0
BITMAP
1000
4454
4544
5550
4440
5540
4A50
4510
5450
ENDCHAR
STARTCHAR Lacute
ENCODING 313
SWIDTH 467 0
DWIDTH 6 0
BBX 6 12 0 0
BITMAP
0500
0500
1400
1400
4400
4400
5400
4400
5400
4400
4550
5550
ENDCHAR
STARTCHAR lacute
ENCODING 314
SWIDTH 467 0
DWIDTH 6 0
BBX 6 12 0 0
BITMAP
0500
0500
1400
1400
4400
4400
5400
4400
5400
4400
4550
5550
ENDCHAR
STARTCHAR Lcommaaccent
ENCODING 315
SWIDTH 467 0
DWIDTH 6 0
BBX 6 12 0 -3
BITMAP
1000
4400
4400
5400
4400
5400
4400
4550
5550
0400
1500
1400
ENDCHAR
STARTCHAR lcommaaccent
ENCODING 316
SWIDTH 467 0
DWIDTH 6 0
BBX 6 12 0 -3
BITMAP
1000
4400
4400
5400
4400
5400
4400
4550
5550
0400
1500
1400
ENDCHAR
STARTCHAR Lcaron
ENCODING 317
SWIDTH 467 0
DWIDTH 6 0
BBX 6 10 0 0
BITMAP
0040
1150
4540
4400
5400
4400
5400
4400
4550
5550
ENDCHAR
STARTCHAR lcaron
ENCODING 318
SWIDTH 467 0
DWIDTH 6 0
BBX 6 10 0 0
BITMAP
0040
1150
4540
4400
5400
4400
5400
4400
4550
5550
ENDCHAR
STARTCHAR Ldot
ENCODING 319
SWIDTH 611 0
DWIDTH 7 0
BBX 7 9 0 0
BITMAP
1000
4400
4400
5414
4414
5414
4400
4550
5550
ENDCHAR
STARTCHAR ldotaccent
ENCODING 320
SWIDTH 611 0
DWIDTH 7 0
BBX 7 9 0 0
BITMAP
1000
4400
4400
5414
4414
5414
4400
4550
5550
ENDCHAR
STARTCHAR Lslash
ENCODING 321
SWIDTH 505 0
DWIDTH 6 0
BBX 6 9 0 0
BITMAP
1400
1100
1400
1500
5440
5500
1510
1510
1550
ENDCHAR
STARTCHAR lslash
ENCODING 322
SWIDTH 505 0
DWIDTH 6 0
BBX 6 9 0 0
BITMAP
1400
1100
1400
1500
5440
5500
1510
1510
1550
ENDCHAR
STARTCHAR Nacute
ENCODING 323
SWIDTH 598 0
DWIDTH 7 0
BBX 7 12 0 0
BITMAP
0040
0150
0140
1410
4544
4544
5594
4484
5554
4514
4514
5464
ENDCHAR
STARTCHAR nacute
ENCODING 324
SWIDTH 598 0
DWIDTH 7 0
BBX 7 12 0 0
BITMAP
0040
0150
0140
1410
4544
4544
5594
4484
5554
4514
4514
5464
ENDCHAR
STARTCHAR Ncommaaccent
ENCODING 325
SWIDTH 598 0
DWIDTH 7 0
BBX 7 12 0 -3
BITMAP
1410
4544
4544
5594
4484
5554
4514
4514
5464
0100
0540
0500
ENDCHAR
STARTCHAR ncommaaccent
ENCODING 326
SWIDTH 598 0
DWIDTH 7 0
BBX 7 12 0 -3
BITMAP
1410
4544
4544
5594
4484
5554
4514
4514
5464
0100
0540
0500
ENDCHAR
STARTCHAR Ncaron
ENCODING 327
SWIDTH 598 0
DWIDTH 7 0
BBX 7 12 0 0
BITMAP
0550
0540
0140
1410
4544
4544
5594
4484
5554
4514
4514
5464
ENDCHAR
STARTCHAR ncaron
ENCODING 328
SWIDTH 598 0
DWIDTH 7 0
BBX 7 12 0 0
BITMAP
0550
0540
0140
1410
4544
4544
5594
4484
5554
4514
4514
5464
ENDCHAR
STARTCHAR napostrophe
ENCODING 329
SWIDTH 807 0
DWIDTH 10 0
BBX 10 9 0 0
BITMAP
114140
552110
511500
025650
015540
015550
015140
014480
014580
ENDCHAR
STARTCHAR Eng
ENCODING 330
SWIDTH 595 0
DWIDTH 7 0
BBX 7 12 0 -3
BITMAP
1400
4554
4544
5584
4484
5944
4514
4514
5454
0154
1114
1540
ENDCHAR
STARTCHAR eng
ENCODING 331
SWIDTH 595 0
DWIDTH 7 0
BBX 7 12 0 -3
BITMAP
1400
4554
4544
5584
4484
5944
4514
4514
5454
0154
1114
1540
ENDCHAR
STARTCHAR Omacron
ENCODING 332
SWIDTH 612 0
DWIDTH 7 0
BBX 7 12 0 -1
BITMAP
0540
0550
1500
1154
1554
5454
4444
5454
4554
4508
5554
1000
ENDCHAR
STARTCHAR omacron
ENCODING 333
SWIDTH 612 0
DWIDTH 7 0
BBX 7 12 0 -1
BITMAP
0540
0550
1500
1154
1554
5454
4444
5454
4554
4508
5554
1000
ENDCHAR
STARTCHAR Obreve
ENCODING 334
SWIDTH 612 0
DWIDTH 7 0
BBX 7 13 0 -1
BITMAP
0550
0550
0540
1500
1154
1554
5454
4444
5454
4554
4508
5554
1000
ENDCHAR
STARTCHAR obreve
ENCODING 335
SWIDTH 612 0
DWIDTH 7 0
BBX 7 13 0 -1
BITMAP
0550
0550
0540
1500
1154
1554
5454
4444
5454
4554
4508
5554
1000
ENDCHAR
STARTCHAR Ohungarumlaut
ENCODING 336
SWIDTH 612 0
DWIDTH 7 0
BBX 7 13 0 -1
BITMAP
0150
0154
0550
1500
1154
1554
5454
4444
5454
4554
4508
5554
1000
ENDCHAR
STARTCHAR ohungarumlaut
ENCODING 337
SWIDTH 612 0
DWIDTH 7 0
BBX 7 13 0 -1
BITMAP
0150
0154
0550
1500
1154
1554
5454
4444
5454
4554
4508
5554
1000
ENDCHAR
STARTCHAR OE
ENCODING 338
SWIDTH 831 0
DWIDTH 10 0
BBX 10 10 0 -1
BITMAP
151550
115510
155550
545400
444540
545540
455500
451550
556550
100000
ENDCHAR
STARTCHAR oe
ENCODING 339
SWIDTH 831 0
DWIDTH 10 0
BBX 10 10 0 -1
BITMAP
151550
115510
155550
545400
444540
545540
455500
451550
556550
100000
ENDCHAR
STARTCHAR Racute
ENCODING 340
SWIDTH 532 0
DWIDTH 6 0
BBX 7 13 0 -1
BITMAP
0040
0140
0140
1400
5140
5504
5550
4650
4540
5950
4450
4454
1000
ENDCHAR
STARTCHAR racute
ENCODING 341
SWIDTH 532 0
DWIDTH 6 0
BBX 7 13 0 -1
BITMAP
0040
0140
0140
1400
5140
5504
5550
4650
4540
5950
4450
4454
1000
ENDCHAR
STARTCHAR Rcommaaccent
ENCODING 342
SWIDTH 532 0
DWIDTH 6 0
BBX 7 12 0 -3
BITMAP
1400
5140
5504
5550
4650
4540
5950
4450
4454
1500
0500
1400
ENDCHAR
STARTCHAR rcommaaccent
ENCODING 343
SWIDTH 532 0
DWIDTH 6 0
BBX 7 12 0 -3
BITMAP
1400
5140
5504
5550
4650
4540
5950
4450
4454
1500
0500
1400
ENDCHAR
STARTCHAR Rcaron
ENCODING 344
SWIDTH 532 0
DWIDTH 6 0
BBX 7 13 0 -1
BITMAP
1540
0540
0600
1400
5140
5504
5550
4650
4540
5950
4450
4454
1000
ENDCHAR
STARTCHAR rcaron
ENCODING 345
SWIDTH 532 0
DWIDTH 6 0
BBX 7 13 0 -1
BITMAP
1540
0540
0600
1400
5140
5504
5550
4650
4540
5950
4450
4454
1000
ENDCHAR
STARTCHAR Sacute
ENCODING 346
SWIDTH 442 0
DWIDTH 5 0
BBX 6 12 0 0
BITMAP
0100
0500
0500
0540
6400
4540
1400
1100
0540
0840
5510
5540
ENDCHAR
STARTCHAR sacute
ENCODING 347
SWIDTH 442 0
DWIDTH 5 0
BBX 6 12 0 0
BITMAP
0100
0500
0500
0540
6400
4540
1400
1100
0540
0840
5510
5540
ENDCHAR
STARTCHAR Scircumflex
ENCODING 348
SWIDTH 442 0
DWIDTH 5 0
BBX 6 12 0 0
BITMAP
0500
1500
1540
0540
6400
4540
1400
1100
0540
0840
5510
5540
ENDCHAR
STARTCHAR scircumflex
ENCODING 349
SWIDTH 442 0
DWIDTH 5 0
BBX 6 12 0 0
BITMAP
0500
1500
1540
0540
6400
4540
1400
1100
0540
0840
5510
5540
ENDCHAR
STARTCHAR Scedilla
ENCODING 350
SWIDTH 442 0
DWIDTH 5 0
BBX 6 12 0 -3
BITMAP
0540
6400
4540
1400
1100
0540
0840
5510
5640
0500
1500
1000
ENDCHAR
STARTCHAR scedilla
ENCODING 351
SWIDTH 442 0
DWIDTH 5 0
BBX 6 12 0 -3
BITMAP
0540
6400
4540
1400
1100
0540
0840
5510
5640
0500
1500
1000
ENDCHAR
STARTCHAR Scaron
ENCODING 352
SWIDTH 442 0
DWIDTH 5 0
BBX 6 12 0 0
BITMAP
1540
1500
1500
0540
6400
4540
1400
1100
0540
0840
5510
5540
ENDCHAR
STARTCHAR scaron
ENCODING 353
SWIDTH 442 0
DWIDTH 5 0
BBX 6 12 0 0
BITMAP
1540
1500
1500
0540
6400
4540
1400
1100
0540
0840
5510
5540
ENDCHAR
STARTCHAR Tcommaaccent
ENCODING 354
SWIDTH 453 0
DWIDTH 5 0
BBX 6 12 0 -3
BITMAP
5540
4410
5550
1500
1100
1100
1500
1100
1500
0400
1400
1400
ENDCHAR
STARTCHAR tcommaaccent
ENCODING 355
SWIDTH 453 0
DWIDTH 5 0
BBX 6 12 0 -3
BITMAP
5540
4410
5550
1500
1100
1100
1500
1100
1500
0400
1400
1400
ENDCHAR
STARTCHAR Tcaron
ENCODING 356
SWIDTH 453 0
DWIDTH 5 0
BBX 6 12 0 0
BITMAP
1540
1540
0500
5540
4410
5550
1500
1100
1100
1500
1100
1500
ENDCHAR
STARTCHAR tcaron
ENCODING 357
SWIDTH 453 0
DWIDTH 5 0
BBX 6 12 0 0
BITMAP
1540
1540
0500
5540
4410
5550
1500
1100
1100
1500
1100
1500
ENDCHAR
STARTCHAR Tbar
ENCODING 358
SWIDTH 455 0
DWIDTH 5 0
BBX 6 9 0 0
BITMAP
5440
4510
5550
1500
1540
4040
1600
1100
1500
ENDCHAR
STARTCHAR tbar
ENCODING 359
SWIDTH 455 0
DWIDTH 5 0
BBX 6 9 0 0
BITMAP
5440
4510
5550
1500
1540
4040
1600
1100
1500
ENDCHAR
STARTCHAR Utilde
ENCODING 360
SWIDTH 583 0
DWIDTH 7 0
BBX 7 13 0 -1
BITMAP
0554
0550
1550
1450
1444
1444
5454
4444
5454
4554
4514
5564
1000
ENDCHAR
STARTCHAR utilde
ENCODING 361
SWIDTH 583 0
DWIDTH 7 0
BBX 7 13 0 -1
BITMAP
0554
0550
1550
1450
1444
1444
5454
4444
5454
4554
4514
5564
1000
ENDCHAR
STARTCHAR Umacron
ENCODING 362
SWIDTH 583 0
DWIDTH 7 0
BBX 7 12 0 -1
BITMAP
0540
0540
1450
1444
1444
5454
4444
5454
4554
4514
5564
1000
ENDCHAR
STARTCHAR umacron
ENCODING 363
SWIDTH 583 0
DWIDTH 7 0
BBX 7 12 0 -1
BITMAP
0540
0540
1450
1444
1444
5454
4444
5454
4554
4514
5564
1000
ENDCHAR
STARTCHAR Ubreve
ENCODING 364
SWIDTH 583 0
DWIDTH 7 0
BBX 7 13 0 -1
BITMAP
1450
1550
0540
1450
1444
1444
5454
4444
5454
4554
4514
5564
1000
ENDCHAR
STARTCHAR ubreve
ENCODING 365
SWIDTH 583 0
DWIDTH 7 0
BBX 7 13 0 -1
BITMAP
1450
1550
0540
1450
1444
1444
5454
4444
5454
4554
4514
5564
1000
ENDCHAR
STARTCHAR Uring
ENCODING 366
SWIDTH 583 0
DWIDTH 7 0
BBX 7 14 0 -1
BITMAP
0140
0540
1550
0540
1450
1444
1444
5454
4444
5454
4554
4514
5564
1000
ENDCHAR
STARTCHAR uring
ENCODING 367
SWIDTH 583 0
DWIDTH 7 0
BBX 7 14 0 -1
BITMAP
0140
0540
1550
0540
1450
1444
1444
5454
4444
5454
4554
4514
5564
1000
ENDCHAR
STARTCHAR Uhungarumlaut
ENCODING 368
SWIDTH 583 0
DWIDTH 7 0
BBX 7 13 0 -1
BITMAP
0110
0550
0550
1450
1444
1444
5454
4444
5454
4554
4514
5564
1000
ENDCHAR
STARTCHAR uhungarumlaut
ENCODING 369
SWIDTH 583 0
DWIDTH 7 0
BBX 7 13 0 -1
BITMAP
0110
0550
0550
1450
1444
1444
5454
4444
5454
4554
4514
5564
1000
ENDCHAR
STARTCHAR Uogonek
ENCODING 370
SWIDTH 583 0
DWIDTH 7 0
BBX 7 12 0 -3
BITMAP
1450
1444
1444
5454
4444
5454
4554
4514
5564
1050
0054
0014
ENDCHAR
STARTCHAR uogonek
ENCODING 371
SWIDTH 583 0
DWIDTH 7 0
BBX 7 12 0 -3
BITMAP
1450
1444
1444
5454
4444
5454
4554
4514
5564
1050
0054
0014
ENDCHAR
STARTCHAR Wcircumflex
ENCODING 372
SWIDTH 735 0
DWIDTH 9 0
BBX 9 12 0 -1
BITMAP
015000
015000
055000
505440
451440
565940
455500
155500
149100
145100
155100
040400
ENDCHAR
STARTCHAR wcircumflex
ENCODING 373
SWIDTH 735 0
DWIDTH 9 0
BBX 9 12 0 -1
BITMAP
015000
015000
055000
505440
451440
565940
455500
155500
149100
145100
155100
040400
ENDCHAR
STARTCHAR Ycircumflex
ENCODING 374
SWIDTH 484 0
DWIDTH 6 0
BBX 6 12 0 0
BITMAP
0600
1540
1540
0000
5050
4510
5550
1440
0840
1100
1100
1500
ENDCHAR
STARTCHAR ycircumflex
ENCODING 375
SWIDTH 484 0
DWIDTH 6 0
BBX 6 12 0 0
BITMAP
0600
1540
1540
0000
5050
4510
5550
1440
0840
1100
1100
1500
ENDCHAR
STARTCHAR Ydieresis
ENCODING 376
SWIDTH 484 0
DWIDTH 6 0
BBX 6 11 0 0
BITMAP
1540
1540
0000
5050
4510
5550
1440
0840
1100
1100
1500
ENDCHAR
STARTCHAR Zacute
ENCODING 377
SWIDTH 458 0
DWIDTH 6 0
BBX 6 12 0 0
BITMAP
0100
0540
0500
1540
4450
5550
0540
1140
2100
4500
4940
5540
ENDCHAR
STARTCHAR zacute
ENCODING 378
SWIDTH 458 0
DWIDTH 6 0
BBX 6 12 0 0
BITMAP
0100
0540
0500
1540
4450
5550
0540
1140
2100
4500
4940
5540
ENDCHAR
STARTCHAR Zdotaccent
ENCODING 379
SWIDTH 458 0
DWIDTH 6 0
BBX 6 11 0 0
BITMAP
0500
0500
1540
4450
5550
0540
1140
2100
4500
4940
5540
ENDCHAR
STARTCHAR zdotaccent
ENCODING 380
SWIDTH 458 0
DWIDTH 6 0
BBX 6 11 0 0
BITMAP
0500
0500
1540
4450
5550
0540
1140
2100
4500
4940
5540
ENDCHAR
STARTCHAR Zcaron
ENCODING 381
SWIDTH 458 0
DWIDTH 6 0
BBX 6 12 0 0
BITMAP
1540
1500
0500
1540
4450
5550
0540
1140
2100
4500
4940
5540
ENDCHAR
STARTCHAR zcaron
ENCODING 382
SWIDTH 458 0
DWIDTH 6 0
BBX 6 12 0 0
BITMAP
1540
1500
0500
1540
4450
5550
0540
1140
2100
4500
4940
5540
ENDCHAR
STARTCHAR AEacute
ENCODING 508
SWIDTH 797 0
DWIDTH 10 0
BBX 10 12 0 0
BITMAP
001400
001400
005000
001540
014510
044550
059400
114540
115540
444900
454510
505540
ENDCHAR
STARTCHAR aeacute
ENCODING 509
SWIDTH 797 0
DWIDTH 10 0
BBX 10 12 0 0
BITMAP
001400
001400
005000
001540
014510
044550
059400
114540
115540
444900
454510
505540
ENDCHAR
STARTCHAR Oslashacute
ENCODING 510
SWIDTH 612 0
DWIDTH 7 0
BBX 7 13 0 -1
BITMAP
0040
0150
0140
1510
1154
1544
5554
4554
5854
4554
5208
4554
1400
ENDCHAR
STARTCHAR oslashacute
ENCODING 511
SWIDTH 612 0
DWIDTH 7 0
BBX 7 13 0 -1
BITMAP
0040
0150
0140
1510
1154
1544
5554
4554
5854
4554
5208
4554
1400
ENDCHAR
STARTCHAR dotlessj
ENCODING 567
SWIDTH 482 0
DWIDTH 6 0
BBX 6 10 0 -1
BITMAP
0140
0110
0110
0150
1110
5150
4510
2110
0550
0500
ENDCHAR
STARTCHAR circumflex
ENCODING 710
SWIDTH 308 0
DWIDTH 4 0
BBX 4 3 0 9
BITMAP
18
55
55
ENDCHAR
STARTCHAR caron
ENCODING 711
SWIDTH 310 0
DWIDTH 4 0
BBX 4 3 0 9
BITMAP
55
55
14
ENDCHAR
STARTCHAR breve
ENCODING 728
SWIDTH 333 0
DWIDTH 4 0
BBX 4 3 0 9
BITMAP
55
55
55
ENDCHAR
STARTCHAR dotaccent
ENCODING 729
SWIDTH 166 0
DWIDTH 2 0
BBX 2 2 0 9
BITMAP
50
50
ENDCHAR
STARTCHAR ring
ENCODING 730
SWIDTH 309 0
DWIDTH 4 0
BBX 4 4 0 9
BITMAP
14
55
55
55
ENDCHAR
STARTCHAR ogonek
ENCODING 731
SWIDTH 226 0
DWIDTH 3 0
BBX 3 4 0 -3
BITMAP
50
50
54
14
ENDCHAR
STARTCHAR tilde
ENCODING 732
SWIDTH 410 0
DWIDTH 5 0
BBX 5 3 0 9
BITMAP
1940
5540
5600
ENDCHAR
STARTCHAR hungarumlaut
ENCODING 733
SWIDTH 361 0
DWIDTH 4 0
BBX 4 3 0 9
BITMAP
11
55
55
ENDCHAR
STARTCHAR uni0312
ENCODING 786
SWIDTH 202 0
DWIDTH 2 0
BBX 3 3 0 6
BITMAP
10
54
50
ENDCHAR
STARTCHAR uni0315
ENCODING 789
SWIDTH 202 0
DWIDTH 2 0
BBX 3 3 0 6
BITMAP
10
54
50
ENDCHAR
STARTCHAR uni0326
ENCODING 806
SWIDTH 201 0
DWIDTH 2 0
BBX 3 3 0 -3
BITMAP
10
54
50
ENDCHAR
STARTCHAR Wgrave
ENCODING 7808
SWIDTH 735 0
DWIDTH 9 0
BBX 9 12 0 -1
BITMAP
014000
014000
014000
505440
451440
565940
455500
155500
149100
145100
155100
040400
ENDCHAR
STARTCHAR wgrave
ENCODING 7809
SWIDTH 735 0
DWIDTH 9 0
BBX 9 12 0 -1
BITMAP
014000
014000
014000
505440
451440
565940
455500
155500
149100
145100
155100
040400
ENDCHAR
STARTCHAR Wacute
ENCODING 7810
SWIDTH 735 0
DWIDTH 9 0
BBX 9 12 0 -1
BITMAP
001000
005000
005000
505440
451440
565940
455500
155500
149100
145100
155100
040400
ENDCHAR
STARTCHAR wacute
ENCODING 7811
SWIDTH 735 0
DWIDTH 9 0
BBX 9 12 0 -1
BITMAP
001000
005000
005000
505440
451440
565940
455500
155500
149100
145100
155100
040400
ENDCHAR
STARTCHAR Wdieresis
ENCODING 7812
SWIDTH 735 0
DWIDTH 9 0
BBX 9 11 0 -1
BITMAP
055400
055400
505440
451440
565940
455500
155500
149100
145100
155100
040400
ENDCHAR
STARTCHAR wdieresis
ENCODING 7813
SWIDTH 735 0
DWIDTH 9 0
BBX 9 11 0 -1
BITMAP
055400
055400
505440
451440
565940
455500
155500
149100
145100
155100
040400
ENDCHAR
STARTCHAR Ygrave
ENCODING 7922
SWIDTH 484 0
DWIDTH 6 0
BBX 6 11 0 0
BITMAP
0400
1100
0500
5050
4510
5550
1440
0840
1100
1100
1500
ENDCHAR
STARTCHAR ygrave
ENCODING 7923
SWIDTH 484 0
DWIDTH 6 0
BBX 6 11 0 0
BITMAP
0400
1100
0500
5050
4510
5550
1440
0840
1100
1100
1500
ENDCHAR
STARTCHAR endash
ENCODING 8211
SWIDTH 591 0
DWIDTH 7 0
BBX 7 2 0 3
BITMAP
5554
5554
ENDCHAR
STARTCHAR emdash
ENCODING 8212
SWIDTH 726 0
DWIDTH 9 0
BBX 9 2 0 3
BITMAP
555540
555540
ENDCHAR
STARTCHAR quoteleft
ENCODING 8216
SWIDTH 291 0
DWIDTH 4 0
BBX 4 5 0 4
BITMAP
14
11
54
44
54
ENDCHAR
STARTCHAR quoteright
ENCODING 8217
SWIDTH 291 0
DWIDTH 4 0
BBX 4 5 0 4
BITMAP
14
11
54
44
54
ENDCHAR
STARTCHAR quotesinglbase
ENCODING 8218
SWIDTH 228 0
DWIDTH 3 0
BBX 4 4 -1 -2
BITMAP
04
11
44
10
ENDCHAR
STARTCHAR quotedblleft
ENCODING 8220
SWIDTH 532 0
DWIDTH 6 0
BBX 6 5 0 4
BITMAP
1450
1140
5550
4510
5540
ENDCHAR
STARTCHAR quotedblright
ENCODING 8221
SWIDTH 532 0
DWIDTH 6 0
BBX 6 5 0 4
BITMAP
1450
1140
5550
4510
5540
ENDCHAR
STARTCHAR quotedblbase
ENCODING 8222
SWIDTH 448 0
DWIDTH 5 0
BBX 6 4 -1 -2
BITMAP
0450
1150
4510
1040
ENDCHAR
STARTCHAR dagger
ENCODING 8224
SWIDTH 453 0
DWIDTH 5 0
BBX 5 10 0 -1
BITMAP
1500
1140
5540
6540
1100
1500
1100
1100
1100
0500
ENDCHAR
STARTCHAR daggerdbl
ENCODING 8225
SWIDTH 462 0
DWIDTH 6 0
BBX 6 10 0 -1
BITMAP
0500
1540
5550
5540
1100
1500
5150
5140
1100
0500
ENDCHAR
STARTCHAR bullet
ENCODING 8226
SWIDTH 275 0
DWIDTH 3 0
BBX 3 3 0 3
BITMAP
10
44
14
ENDCHAR
STARTCHAR ellipsis
ENCODING 8230
SWIDTH 605 0
DWIDTH 7 0
BBX 7 2 0 0
BITMAP
5554
5554
ENDCHAR
STARTCHAR perthousand
ENCODING 8240
SWIDTH 1249 0
DWIDTH 15 0
BBX 15 9 0 0
BITMAP
10000000
51140000
55140000
54540000
45455150
14555554
00550454
00554554
00555554
ENDCHAR
STARTCHAR guilsinglleft
ENCODING 8249
SWIDTH 359 0
DWIDTH 4 0
BBX 4 6 0 1
BITMAP
05
51
44
55
11
04
ENDCHAR
STARTCHAR guilsinglright
ENCODING 8250
SWIDTH 359 0
DWIDTH 4 0
BBX 4 6 0 1
BITMAP
50
45
15
16
44
10
ENDCHAR
STARTCHAR fraction
ENCODING 8260
SWIDTH 266 0
DWIDTH 3 0
BBX 3 8 0 0
BITMAP
14
14
14
04
44
50
50
50
ENDCHAR
STARTCHAR Euro
ENCODING 8364
SWIDTH 690 0
DWIDTH 8 0
BBX 8 10 0 -1
BITMAP
0150
0415
0555
1540
1440
5940
5455
0551
0555
0100
ENDCHAR
STARTCHAR partialdiff
ENCODING 8706
SWIDTH 519 0
DWIDTH 6 0
BBX 6 10 0 -1
BITMAP
0100
0440
0440
0540
1510
5150
5910
4150
1450
0100
ENDCHAR
STARTCHAR minus
ENCODING 8722
SWIDTH 467 0
DWIDTH 6 0
BBX 6 2 0 3
BITMAP
5540
5550
ENDCHAR
STARTCHAR fi
ENCODING 64257
SWIDTH 741 0
DWIDTH 9 0
BBX 9 9 0 0
BITMAP
154100
451440
455440
540540
454440
554540
440440
440440
540540
ENDCHAR
STARTCHAR fl
ENCODING 64258
SWIDTH 942 0
DWIDTH 11 0
BBX 12 9 0 0
BITMAP
154100
451440
455440
540540
454440
554540
440440
440491
540595
ENDCHAR
STARTCHAR .notdef
ENCODING -1
SWIDTH 200 0
DWIDTH 2 0
BBX 1 1 0 0
BITMAP
00
ENDCHAR
STARTCHAR .null
ENCODING -1
SWIDTH 0 0
DWIDTH 0 0
BBX 1 1 0 0
BITMAP
00
ENDCHAR
STARTCHAR nonmarkingreturn
ENCODING -1
SWIDTH 200 0
DWIDTH 2 0
BBX 1 1 0 0
BITMAP
00
ENDCHAR
ENDFONT
